# xmcd
# Track frame offsets:
# 150
# 13729
# 27509
# 39336
# 55895
# 73343
# 87057
# 100216
# 114745
# 125922
# 139191
# 154987
# 168918
# 185741
#
# Disc length: 2651 seconds
# Revision: 0
# Processed by: cddbd v1.5.2PL0 Copyright (c) Steve Scherf et al.
# Submitted via: VisiTrax 2.11.2.271 - For more info visit www.synapsa.com
#
DISCID=ca0a590e
DTITLE=Kikki Danielsson - Första Dagen På Resten Av Mitt Liv
DYEAR=2011
DGENRE=
TTITLE0=Wagon wheels
TTITLE1=Låt min starka låga brinna
TTITLE2=Första dagen på resten av mitt liv
TTITLE3=Wine and roses
TTITLE4=Maybe I'll do
TTITLE5=Varje sång har ett slut
TTITLE6=Att få älska och bli älskad igen
TTITLE7=Backstreets of my heart
TTITLE8=En dans, en kyss
TTITLE9=Inga lösa skott
TTITLE10=Jag trodde änglarna fanns
TTITLE11=Let this light shine on forever
TTITLE12=Ringarna på vattnet
TTITLE13=To know him is to love him
EXTD=
EXTT0=
EXTT1=
EXTT2=
EXTT3=
EXTT4=
EXTT5=
EXTT6=
EXTT7=
EXTT8=
EXTT9=
EXTT10=
EXTT11=
EXTT12=
EXTT13=
PLAYORDER=
